<svg id="svg" version="1.1" xmlns="http://www.w3.org/2000/svg" xmlns:xlink="http://www.w3.org/1999/xlink" width="400" height="362.38095238095235" viewBox="0, 0, 400,362.38095238095235"><g id="svgg"><path id="path0" d="M15.140 19.732 C 8.615 22.090,7.883 30.944,13.955 34.069 L 15.755 34.995 51.305 35.177 L 86.854 35.358 88.431 36.200 C 92.440 38.339,94.663 41.420,95.693 46.261 C 96.072 48.043,97.065 52.520,97.899 56.210 C 98.733 59.900,99.713 64.306,100.077 66.002 C 100.440 67.697,101.415 72.022,102.243 75.612 C 103.072 79.202,104.061 83.608,104.441 85.403 C 104.822 87.199,105.540 90.462,106.037 92.656 C 107.351 98.460,111.624 117.527,112.416 121.124 C 112.789 122.820,113.420 125.594,113.817 127.289 C 114.214 128.985,114.793 131.596,115.103 133.092 C 115.414 134.587,116.169 138.015,116.783 140.707 C 119.911 154.444,120.522 157.157,121.317 160.834 C 122.618 166.851,126.637 184.823,128.048 190.934 C 128.417 192.529,129.539 197.588,130.543 202.176 C 131.546 206.763,132.521 211.088,132.709 211.786 C 132.897 212.484,134.289 218.685,135.801 225.567 C 137.314 232.448,138.787 239.057,139.074 240.254 C 142.236 253.429,146.078 271.812,145.752 272.206 C 145.543 272.458,144.852 272.777,144.218 272.916 C 138.345 274.197,129.005 281.216,124.762 287.536 C 108.028 312.464,125.815 346.070,155.757 346.095 C 184.535 346.119,203.051 314.626,188.622 290.193 C 187.999 289.137,187.489 288.117,187.489 287.926 C 187.489 287.559,292.006 287.412,292.372 287.779 C 292.482 287.888,291.695 289.724,290.624 291.858 C 273.566 325.843,313.011 360.951,344.755 340.038 C 378.902 317.541,358.192 265.855,317.316 271.560 C 312.841 272.184,163.109 272.048,162.479 271.419 C 162.143 271.083,160.996 266.318,158.511 254.941 C 157.682 251.145,151.821 225.140,151.099 222.054 C 150.810 220.820,150.666 219.718,150.778 219.606 C 150.890 219.494,188.498 219.402,234.350 219.402 C 327.510 219.402,320.367 219.605,325.657 216.803 C 330.751 214.104,333.001 211.283,336.450 203.264 C 338.660 198.127,342.807 188.640,343.425 187.307 C 343.610 186.908,344.927 183.889,346.353 180.598 C 347.778 177.307,349.417 173.583,349.994 172.323 C 350.571 171.062,351.043 169.961,351.043 169.876 C 351.043 169.754,355.929 158.533,358.454 152.856 C 359.323 150.903,364.994 137.891,370.623 124.932 C 380.059 103.211,385.121 91.612,385.659 90.481 C 392.295 76.532,391.520 69.014,383.015 64.827 L 380.614 63.645 248.203 63.552 L 115.791 63.460 115.192 61.195 C 114.862 59.949,113.690 54.850,112.587 49.864 C 110.141 38.804,109.592 36.928,107.952 34.014 C 104.329 27.578,98.356 22.804,90.878 20.368 L 87.942 19.411 52.221 19.326 C 22.902 19.255,16.257 19.328,15.140 19.732 M372.961 79.384 C 373.183 79.743,372.485 81.460,367.640 92.475 C 363.728 101.371,363.872 101.041,360.111 109.701 C 358.465 113.490,355.441 120.426,353.391 125.113 C 351.341 129.801,348.260 136.858,346.544 140.797 C 344.827 144.736,342.053 151.100,340.379 154.940 C 338.705 158.780,335.346 166.491,332.914 172.076 C 330.483 177.661,327.054 185.494,325.295 189.483 C 323.535 193.472,321.656 197.797,321.119 199.093 C 319.911 202.009,319.667 202.310,317.860 203.132 C 316.263 203.859,147.528 204.212,147.081 203.490 C 146.905 203.205,145.062 195.144,143.256 186.763 C 142.891 185.068,141.506 178.867,140.178 172.983 C 138.850 167.099,137.457 160.898,137.081 159.202 C 136.705 157.507,135.318 151.306,133.998 145.422 C 132.679 139.538,131.292 133.336,130.916 131.641 C 130.540 129.946,129.172 123.826,127.877 118.042 C 120.751 86.228,119.334 79.675,119.516 79.381 C 119.784 78.947,372.692 78.950,372.961 79.384 M159.601 287.505 C 177.136 288.792,184.160 313.593,170.236 325.057 C 151.488 340.491,125.539 319.806,136.642 298.277 C 139.966 291.832,148.227 286.536,154.125 287.069 C 155.222 287.169,157.686 287.365,159.601 287.505 M329.480 287.406 C 344.776 291.311,351.030 309.104,341.595 321.875 C 332.043 334.805,311.455 332.625,304.488 317.945 C 298.155 304.598,306.822 288.453,320.800 287.561 C 322.883 287.428,324.693 287.214,324.820 287.087 C 325.216 286.691,327.218 286.828,329.480 287.406 " stroke="none" fill="#060606" fill-rule="evenodd"></path><path id="path1" d="M0.000 181.324 L 0.000 362.647 200.000 362.647 L 400.000 362.647 400.000 181.324 L 400.000 0.000 200.000 0.000 L 0.000 0.000 0.000 181.324 M90.340 19.686 C 101.471 23.068,108.809 31.099,111.452 42.792 C 113.240 50.701,114.257 55.315,115.008 58.930 C 115.423 60.925,115.840 62.638,115.935 62.738 C 116.030 62.838,175.292 62.931,247.628 62.945 C 393.445 62.974,381.265 62.771,384.647 65.236 C 391.726 70.396,392.420 76.841,387.132 88.305 C 386.123 90.490,380.697 102.838,377.330 110.607 C 375.990 113.699,374.505 117.090,374.029 118.143 C 373.553 119.196,373.164 120.119,373.164 120.194 C 373.164 120.352,369.106 129.671,368.101 131.822 C 367.337 133.455,365.080 138.606,363.571 142.158 C 363.020 143.454,362.202 145.331,361.753 146.328 C 361.304 147.325,360.440 149.284,359.833 150.680 C 359.227 152.076,357.338 156.401,355.637 160.290 C 353.936 164.180,351.164 170.544,349.477 174.433 C 347.790 178.323,345.312 184.034,343.970 187.126 C 342.629 190.218,341.142 193.609,340.666 194.662 C 340.190 195.715,339.801 196.653,339.801 196.746 C 339.801 196.839,339.330 197.936,338.755 199.183 C 338.179 200.430,336.888 203.277,335.885 205.510 C 332.555 212.921,329.594 215.903,322.902 218.581 L 320.399 219.583 235.811 219.678 C 153.330 219.771,151.224 219.790,151.224 220.454 C 151.224 220.829,151.616 222.663,152.094 224.530 C 152.573 226.396,153.074 228.658,153.208 229.556 C 153.341 230.453,153.604 231.684,153.791 232.290 C 153.978 232.897,154.361 234.447,154.641 235.735 C 155.978 241.874,157.856 250.332,158.462 252.947 C 158.831 254.542,159.579 257.806,160.123 260.199 C 160.667 262.593,161.457 266.020,161.880 267.815 L 162.647 271.079 240.435 271.018 C 283.218 270.985,320.752 270.906,323.844 270.844 C 349.196 270.336,367.503 294.068,360.803 318.756 C 355.912 336.775,337.806 348.818,319.315 346.351 C 292.767 342.808,277.907 313.325,290.997 290.167 L 292.254 287.942 240.068 287.942 L 187.881 287.942 189.296 290.571 C 204.648 319.108,179.128 352.890,147.597 345.769 C 138.928 343.811,129.559 337.520,124.800 330.461 C 113.369 313.505,116.340 292.068,131.905 279.194 C 134.630 276.939,141.656 273.069,144.331 272.349 L 145.705 271.979 144.818 267.902 C 144.330 265.660,143.631 262.439,143.265 260.743 C 142.899 259.048,141.919 254.723,141.088 251.133 C 140.258 247.543,139.190 242.811,138.716 240.617 C 138.243 238.422,137.526 235.159,137.125 233.364 C 136.723 231.568,135.813 227.489,135.103 224.297 C 134.393 221.106,133.630 217.842,133.408 217.044 C 133.186 216.247,132.785 214.451,132.518 213.055 C 131.967 210.171,130.673 204.331,129.345 198.731 C 128.848 196.636,128.272 194.025,128.064 192.928 C 127.856 191.831,127.099 188.404,126.382 185.313 C 125.136 179.947,123.954 174.666,122.041 165.911 C 121.561 163.717,120.494 158.985,119.670 155.394 C 118.845 151.804,117.868 147.480,117.500 145.784 C 116.120 139.440,114.942 134.172,113.485 127.833 C 112.659 124.243,111.689 119.918,111.328 118.223 C 110.281 113.311,109.304 108.928,108.256 104.442 C 107.720 102.149,107.065 99.211,106.802 97.915 C 106.538 96.618,105.226 90.743,103.887 84.859 C 102.548 78.976,101.162 72.774,100.808 71.079 C 100.453 69.383,99.483 65.059,98.650 61.469 C 97.818 57.879,96.843 53.554,96.484 51.859 C 94.397 41.997,93.465 40.015,89.755 37.552 C 86.648 35.488,87.716 35.544,50.952 35.539 C 29.241 35.537,16.387 35.403,15.551 35.171 C 7.823 33.024,7.313 22.071,14.815 19.356 C 17.064 18.542,87.589 18.851,90.340 19.686 M119.838 79.810 C 119.726 79.992,120.492 83.529,121.875 89.211 C 122.369 91.241,124.947 102.832,125.827 106.981 C 126.668 110.947,129.931 125.572,131.126 130.734 C 133.047 139.029,133.410 140.623,134.181 144.152 C 134.617 146.147,135.198 148.758,135.473 149.955 C 135.749 151.151,136.300 153.681,136.698 155.576 C 137.096 157.471,137.655 160.000,137.940 161.197 C 138.495 163.528,141.412 176.603,142.511 181.686 C 143.640 186.911,145.770 196.269,146.307 198.368 C 146.588 199.465,146.919 201.019,147.044 201.822 L 147.271 203.282 232.203 203.265 C 314.261 203.249,317.173 203.226,318.259 202.576 C 319.204 202.010,319.863 200.798,322.399 194.968 C 324.058 191.153,325.788 187.217,326.244 186.219 C 327.424 183.636,333.027 170.805,336.696 162.285 C 338.413 158.296,340.380 153.808,341.066 152.312 C 341.753 150.816,343.690 146.410,345.371 142.520 C 350.271 131.186,353.261 124.288,353.780 123.119 C 356.042 118.029,361.313 105.971,362.103 104.080 C 362.645 102.783,363.543 100.743,364.099 99.547 C 364.655 98.350,365.929 95.413,366.930 93.019 C 367.931 90.626,369.649 86.668,370.748 84.225 C 372.646 80.003,372.706 79.780,371.958 79.734 C 369.232 79.566,119.942 79.641,119.838 79.810 M150.861 287.748 C 132.805 292.337,128.580 316.017,143.971 326.366 C 158.154 335.903,177.377 325.581,177.328 308.456 C 177.298 297.857,169.255 288.649,159.383 287.910 C 157.389 287.761,155.104 287.549,154.306 287.440 C 153.509 287.331,151.958 287.470,150.861 287.748 M324.388 287.579 C 323.989 287.751,322.387 287.902,320.829 287.916 C 304.437 288.064,296.850 311.296,309.142 323.701 C 326.626 341.345,354.770 319.591,342.737 297.733 C 339.393 291.659,328.685 285.733,324.388 287.579 " stroke="none" fill="#f3f3f3" fill-rule="evenodd"></path><path id="path2" d="M14.815 19.356 C 7.313 22.071,7.823 33.024,15.551 35.171 C 16.387 35.403,29.241 35.537,50.952 35.539 C 87.716 35.544,86.648 35.488,89.755 37.552 C 92.616 39.452,94.077 41.680,95.035 45.605 C 96.019 49.637,96.403 49.797,95.584 45.833 C 94.676 41.444,92.325 38.278,88.431 36.200 L 86.854 35.358 51.305 35.177 L 15.755 34.995 13.955 34.069 C 8.601 31.313,8.444 23.498,13.682 20.419 L 15.413 19.402 51.677 19.403 L 87.942 19.404 90.878 20.364 C 98.368 22.814,104.330 27.580,107.952 34.014 C 109.614 36.965,110.136 38.770,112.796 50.764 C 114.012 56.246,115.078 60.802,115.164 60.888 C 115.437 61.160,115.314 60.095,114.813 57.842 C 114.546 56.646,113.894 53.708,113.362 51.315 C 110.894 40.199,110.435 38.458,109.334 36.039 C 105.756 28.177,98.923 22.294,90.340 19.686 C 87.589 18.851,17.064 18.542,14.815 19.356 M96.102 49.834 C 96.102 50.182,96.840 53.677,97.743 57.600 C 98.645 61.523,99.561 65.517,99.778 66.475 C 99.995 67.433,100.242 68.147,100.327 68.062 C 100.493 67.897,100.250 66.700,97.925 56.228 C 96.509 49.848,96.102 48.421,96.102 49.834 M115.684 63.190 C 115.684 63.339,175.294 63.502,248.149 63.552 L 380.614 63.645 383.015 64.827 C 390.404 68.464,392.076 75.695,387.802 85.530 C 386.904 87.594,386.259 89.372,386.367 89.480 C 386.561 89.674,387.000 88.747,389.240 83.409 C 392.778 74.977,389.141 66.013,381.201 63.597 C 379.024 62.934,115.684 62.530,115.684 63.190 M100.504 69.266 C 100.490 69.565,100.700 70.789,100.971 71.985 C 101.242 73.182,102.542 78.962,103.860 84.830 C 105.931 94.049,106.618 96.733,106.618 95.598 C 106.618 95.455,106.042 92.694,105.339 89.464 C 101.843 73.422,100.559 68.058,100.504 69.266 M119.483 79.510 C 119.390 79.760,119.471 80.453,119.662 81.052 L 120.010 82.140 119.932 80.881 L 119.855 79.623 245.150 79.565 C 314.062 79.533,370.958 79.584,371.587 79.678 L 372.730 79.850 371.458 82.627 C 369.057 87.871,364.801 98.014,364.942 98.155 C 365.080 98.292,367.820 92.212,371.403 83.825 C 372.370 81.561,373.070 79.562,372.960 79.383 C 372.620 78.832,119.687 78.960,119.483 79.510 M120.102 82.865 C 120.098 83.264,120.402 84.733,120.777 86.129 C 121.372 88.347,121.434 88.451,121.270 86.950 C 121.061 85.043,120.112 81.724,120.102 82.865 M121.510 89.090 C 121.481 89.628,125.862 109.286,126.057 109.489 C 126.428 109.877,125.979 107.545,123.662 97.045 C 122.242 90.614,121.563 88.105,121.510 89.090 M385.288 91.241 C 384.970 92.019,382.781 97.063,380.423 102.448 C 369.585 127.203,364.816 138.282,364.943 138.409 C 365.018 138.485,365.533 137.523,366.087 136.272 C 366.641 135.022,367.472 133.182,367.934 132.185 C 369.136 129.591,373.164 120.356,373.164 120.194 C 373.164 120.119,373.553 119.196,374.029 118.143 C 374.505 117.090,375.990 113.699,377.330 110.607 C 378.670 107.516,381.232 101.669,383.024 97.614 C 384.816 93.559,386.188 90.147,386.074 90.033 C 385.960 89.919,385.606 90.462,385.288 91.241 M106.647 96.587 C 106.615 97.330,109.104 108.499,109.358 108.754 C 109.686 109.082,109.490 107.957,108.244 102.367 C 106.872 96.213,106.691 95.559,106.647 96.587 M364.357 98.888 C 364.259 99.051,363.490 100.816,362.647 102.811 C 361.416 105.725,356.129 117.832,353.780 123.119 C 353.261 124.288,350.271 131.186,345.371 142.520 C 343.690 146.410,341.753 150.816,341.066 152.312 C 340.380 153.808,338.413 158.296,336.696 162.285 C 333.027 170.805,327.424 183.636,326.244 186.219 C 325.788 187.217,324.058 191.153,322.399 194.968 C 319.863 200.798,319.204 202.010,318.259 202.576 C 317.173 203.226,314.262 203.249,232.226 203.265 L 147.317 203.282 146.746 200.553 C 146.102 197.475,144.706 191.168,143.788 187.191 C 143.452 185.731,143.104 184.609,143.015 184.697 C 142.844 184.868,143.079 186.029,145.405 196.509 C 146.219 200.173,146.973 203.315,147.081 203.490 C 147.528 204.212,316.263 203.859,317.860 203.132 C 319.667 202.310,319.911 202.009,321.119 199.093 C 321.656 197.797,323.535 193.472,325.295 189.483 C 327.054 185.494,330.483 177.661,332.914 172.076 C 335.346 166.491,338.705 158.780,340.379 154.940 C 342.053 151.100,344.827 144.736,346.544 140.797 C 348.260 136.858,351.341 129.801,353.391 125.113 C 355.441 120.426,358.465 113.490,360.110 109.701 C 361.756 105.911,363.496 101.934,363.978 100.862 C 364.706 99.242,364.972 97.856,364.357 98.888 M109.559 109.629 C 109.501 110.581,110.722 115.603,110.856 114.959 C 110.917 114.660,110.660 113.191,110.284 111.695 C 109.907 110.199,109.581 109.270,109.559 109.629 M126.201 110.162 C 126.201 110.382,127.109 114.612,128.218 119.560 C 129.328 124.509,130.542 129.946,130.917 131.641 C 134.249 146.703,136.393 156.180,136.537 156.482 C 136.851 157.144,136.306 153.625,135.637 150.680 C 135.275 149.084,134.621 146.147,134.184 144.152 C 133.409 140.617,133.033 138.967,131.126 130.734 C 130.618 128.540,129.384 123.005,128.383 118.434 C 126.756 111.006,126.201 108.901,126.201 110.162 M111.193 117.135 C 111.303 118.033,111.783 120.399,112.261 122.393 C 112.738 124.388,113.549 127.973,114.062 130.360 C 114.961 134.539,115.322 135.702,115.322 134.422 C 115.322 133.760,112.814 122.555,111.696 118.223 C 111.207 116.331,111.054 116.000,111.193 117.135 M115.724 137.190 C 115.666 138.143,116.887 143.164,117.021 142.520 C 117.082 142.221,116.825 140.752,116.449 139.257 C 116.072 137.761,115.746 136.831,115.724 137.190 M361.600 145.643 C 359.968 149.364,358.696 152.471,358.774 152.549 C 358.852 152.626,359.368 151.666,359.921 150.416 C 360.475 149.165,361.299 147.325,361.753 146.328 C 363.700 142.047,364.868 139.180,364.722 139.035 C 364.637 138.949,363.231 141.923,361.600 145.643 M117.343 144.515 C 117.447 145.313,118.162 148.740,118.932 152.131 C 119.702 155.521,120.542 159.261,120.799 160.440 C 121.056 161.619,121.333 162.383,121.415 162.138 C 121.497 161.892,121.035 159.377,120.390 156.548 C 118.580 148.623,117.133 142.908,117.343 144.515 M358.063 153.620 C 357.926 153.997,356.291 157.775,354.428 162.014 C 352.566 166.253,351.043 169.791,351.043 169.876 C 351.043 169.961,350.571 171.062,349.994 172.323 C 349.417 173.583,347.778 177.307,346.353 180.598 C 344.927 183.889,343.610 186.908,343.425 187.307 C 342.807 188.640,338.660 198.127,336.450 203.264 C 333.001 211.283,330.751 214.104,325.657 216.803 C 320.367 219.605,327.515 219.402,234.311 219.402 C 188.437 219.402,150.836 219.524,150.753 219.674 C 150.624 219.906,152.670 229.415,153.192 231.006 C 153.724 232.632,152.845 227.416,152.100 224.530 C 151.618 222.663,151.224 220.829,151.224 220.454 C 151.224 219.790,153.330 219.771,235.811 219.678 L 320.399 219.583 322.902 218.581 C 329.594 215.903,332.555 212.921,335.885 205.510 C 336.888 203.277,338.179 200.430,338.755 199.183 C 339.330 197.936,339.801 196.839,339.801 196.746 C 339.801 196.653,340.190 195.715,340.666 194.662 C 341.142 193.609,342.629 190.218,343.970 187.126 C 345.312 184.034,347.790 178.323,349.477 174.433 C 351.164 170.544,353.942 164.215,355.650 160.369 C 357.357 156.522,358.655 153.276,358.534 153.154 C 358.412 153.033,358.200 153.242,358.063 153.620 M137.195 159.565 C 137.646 162.211,142.542 183.642,142.740 183.838 C 142.993 184.089,142.620 181.843,141.961 179.148 C 141.693 178.051,140.795 174.053,139.967 170.263 C 137.517 159.059,137.435 158.710,137.202 158.498 C 137.079 158.387,137.075 158.867,137.195 159.565 M121.850 164.853 C 121.850 165.236,122.242 167.180,122.720 169.175 C 123.198 171.170,124.127 175.238,124.783 178.216 C 125.439 181.194,126.034 183.458,126.104 183.248 C 126.234 182.859,122.273 164.586,121.999 164.309 C 121.917 164.226,121.850 164.471,121.850 164.853 M126.267 184.406 C 126.263 184.805,126.563 186.274,126.932 187.670 C 127.547 189.993,127.586 190.054,127.394 188.395 C 127.163 186.392,126.277 183.257,126.267 184.406 M128.019 192.415 C 128.021 192.797,128.598 195.558,129.301 198.549 C 130.003 201.541,130.826 205.213,131.129 206.709 C 131.800 210.026,132.021 210.801,132.233 210.590 C 132.403 210.420,128.429 192.137,128.164 191.871 C 128.082 191.788,128.016 192.032,128.019 192.415 M132.366 211.968 C 132.366 212.334,132.772 214.361,133.268 216.471 C 134.049 219.796,135.076 224.312,137.719 236.036 C 138.050 237.505,138.376 238.543,138.443 238.342 C 138.578 237.937,132.832 211.768,132.545 211.482 C 132.447 211.383,132.366 211.602,132.366 211.968 M153.614 232.820 C 154.059 235.404,157.800 251.847,157.986 252.031 C 158.263 252.305,157.845 250.093,156.410 243.699 C 155.716 240.607,154.909 236.967,154.617 235.610 C 154.016 232.813,153.244 230.667,153.614 232.820 M138.710 240.435 C 138.854 241.333,139.507 244.352,140.162 247.144 C 140.816 249.937,141.638 253.527,141.988 255.122 C 142.339 256.718,142.689 257.845,142.766 257.626 C 142.922 257.185,138.970 239.296,138.650 238.994 C 138.539 238.889,138.566 239.538,138.710 240.435 M158.276 253.672 C 158.826 256.765,159.280 258.610,159.451 258.439 C 159.667 258.224,158.559 252.719,158.242 252.427 C 158.119 252.314,158.134 252.874,158.276 253.672 M142.918 258.568 C 142.906 258.867,143.130 260.172,143.416 261.469 C 143.703 262.765,144.335 265.660,144.821 267.902 L 145.705 271.979 144.331 272.349 C 141.656 273.069,134.630 276.939,131.905 279.194 C 112.299 295.411,113.444 325.162,134.237 339.796 C 136.780 341.585,141.812 344.175,142.662 344.132 C 142.883 344.121,141.716 343.477,140.067 342.702 C 119.149 332.869,111.891 306.710,124.762 287.536 C 129.005 281.216,138.345 274.197,144.218 272.916 C 146.253 272.472,146.265 272.281,144.686 265.242 C 143.166 258.466,142.955 257.668,142.918 258.568 M159.565 259.248 C 159.565 260.320,162.149 271.088,162.488 271.427 C 163.109 272.049,312.893 272.177,317.316 271.560 C 346.347 267.508,369.018 293.491,359.884 320.346 C 358.922 323.175,358.873 323.413,359.361 322.919 C 359.548 322.730,360.105 321.180,360.597 319.476 C 367.703 294.893,349.643 270.507,324.569 270.826 C 305.685 271.067,163.000 271.214,162.779 270.993 C 162.627 270.841,161.920 268.115,161.208 264.937 C 160.026 259.661,159.565 258.065,159.565 259.248 M150.680 287.247 C 134.412 291.263,128.575 311.950,140.344 323.876 C 145.372 328.971,154.268 331.740,160.221 330.064 C 160.681 329.934,158.805 329.821,156.050 329.813 C 134.672 329.749,126.341 302.490,144.086 290.666 C 147.576 288.341,152.956 286.858,155.421 287.543 C 156.204 287.760,158.039 287.939,159.498 287.940 C 166.885 287.946,175.014 295.435,176.819 303.898 C 179.020 314.219,173.941 323.953,164.023 328.420 C 162.468 329.120,161.686 329.595,162.285 329.476 C 167.695 328.399,174.195 322.210,176.542 315.900 C 181.196 303.388,172.274 288.435,159.601 287.505 C 157.686 287.365,155.222 287.169,154.125 287.069 C 153.028 286.970,151.478 287.050,150.680 287.247 M324.820 287.087 C 324.693 287.214,322.883 287.428,320.800 287.561 C 301.676 288.781,295.554 316.024,312.009 326.675 C 317.150 330.003,324.783 331.408,329.284 329.855 C 330.181 329.545,330.508 329.376,330.009 329.479 C 315.538 332.475,302.811 322.557,302.811 308.285 C 302.811 297.986,311.635 287.942,320.684 287.942 C 322.163 287.942,323.885 287.764,324.510 287.546 C 326.303 286.921,330.279 287.757,333.762 289.492 C 349.486 297.325,349.518 319.435,333.817 327.776 C 332.221 328.624,331.324 329.209,331.822 329.078 C 347.019 325.070,350.912 302.178,338.163 291.792 C 334.227 288.586,326.165 285.742,324.820 287.087 M187.489 287.926 C 187.489 288.117,187.999 289.137,188.622 290.193 C 199.608 308.796,191.369 333.732,171.170 343.015 C 169.873 343.611,169.014 344.111,169.259 344.125 C 170.968 344.228,178.518 339.495,182.049 336.108 C 194.607 324.059,197.508 305.835,189.296 290.571 L 187.881 287.942 240.069 287.942 L 292.257 287.942 290.874 290.390 C 289.645 292.566,288.622 294.957,289.128 294.470 C 289.641 293.976,292.567 287.974,292.384 287.791 C 292.010 287.416,187.489 287.551,187.489 287.926 M288.184 296.351 C 281.903 313.883,290.404 334.359,307.417 342.675 C 309.079 343.488,310.640 344.150,310.886 344.147 C 311.132 344.145,309.775 343.370,307.871 342.425 C 291.174 334.140,282.973 315.739,288.106 298.081 C 289.057 294.813,289.103 293.788,288.184 296.351 M357.427 326.142 C 348.914 341.801,330.836 349.625,314.174 344.861 C 311.014 343.957,310.722 344.241,313.827 345.200 C 330.350 350.304,350.013 341.801,357.981 326.107 C 359.585 322.947,359.149 322.975,357.427 326.142 M143.971 344.640 C 147.958 346.899,159.820 347.207,166.257 345.219 C 169.825 344.117,169.013 344.066,164.822 345.129 C 159.768 346.411,152.154 346.482,147.597 345.291 C 142.806 344.037,142.956 344.064,143.971 344.640 " stroke="none" fill="#989898" fill-rule="evenodd"></path></g></svg>